<?xml version="1.0" standalone="no"?>
<!DOCTYPE svg PUBLIC "-//W3C//DTD SVG 20010904//EN"
 "http://www.w3.org/TR/2001/REC-SVG-20010904/DTD/svg10.dtd">
<svg version="1.0" xmlns="http://www.w3.org/2000/svg"
 width="300.000000pt" height="300.000000pt" viewBox="0 0 300.000000 300.000000"
 preserveAspectRatio="xMidYMid meet">
<metadata>
Created by potrace 1.11, written by Peter Selinger 2001-2013
</metadata>
<g transform="translate(0.000000,300.000000) scale(0.100000,-0.100000)"
fill="#000000" stroke="none">
<path d="M408 2993 c7 -3 16 -2 19 1 4 3 -2 6 -13 5 -11 0 -14 -3 -6 -6z"/>
<path d="M498 2993 c12 -3 22 -12 22 -21 0 -12 -3 -13 -12 -4 -20 20 -54 15
-54 -8 0 -15 7 -20 27 -20 15 0 35 -3 45 -7 12 -4 15 -3 10 5 -4 7 -1 12 7 12
10 0 13 -7 10 -19 -3 -10 0 -22 6 -25 6 -4 9 -1 5 7 -4 11 2 13 23 11 27 -4
27 -4 6 7 -13 7 -23 19 -22 28 0 10 2 12 6 4 2 -7 12 -13 22 -13 22 0 41 -19
41 -41 0 -9 7 -22 15 -29 13 -10 19 -10 33 4 24 21 33 20 26 -1 -5 -17 -5 -17
6 -1 8 13 8 24 0 40 l-11 23 20 -23 c14 -16 21 -18 25 -10 3 7 3 0 0 -17 -3
-16 -3 -27 1 -23 8 8 51 -33 47 -45 -1 -5 2 -6 7 -3 5 3 7 16 4 29 -5 21 -5
21 9 3 20 -26 48 -29 48 -6 0 21 16 36 50 43 23 6 22 5 -2 -5 -16 -7 -28 -15
-28 -18 0 -13 59 -9 73 4 8 8 18 12 22 8 5 -4 5 1 2 11 -4 10 -7 21 -7 23 0 3
-4 2 -10 -1 -5 -3 -10 -2 -10 3 0 16 48 20 54 5 3 -8 10 -12 15 -9 5 3 39 8
76 11 40 3 72 11 81 20 9 8 25 15 37 16 60 2 129 0 133 -4 2 -2 -9 -19 -26
-38 -17 -19 -28 -42 -26 -52 2 -9 0 -15 -5 -11 -5 3 -9 1 -9 -5 0 -28 -30 -38
-108 -35 l-78 3 -11 -30 c-6 -16 -16 -29 -22 -29 -16 0 -13 20 4 26 8 4 15 10
15 16 0 5 -5 6 -10 3 -6 -4 -18 -1 -26 6 -13 10 -17 10 -25 -2 -6 -9 -3 -18 9
-28 15 -12 15 -13 -8 -8 -24 6 -24 5 -6 -8 24 -18 48 -19 64 -3 9 9 15 10 20
2 12 -18 51 -24 60 -9 6 11 12 10 32 -6 14 -12 19 -17 11 -13 -9 4 -12 3 -7
-4 3 -5 1 -12 -6 -14 -18 -6 0 -28 23 -28 11 0 17 4 14 10 -11 18 -14 50 -4
55 5 4 9 1 9 -4 0 -6 8 -11 18 -11 12 0 13 -3 5 -8 -7 -5 -14 -20 -15 -34 -1
-15 -7 -24 -13 -20 -5 3 -5 -1 2 -9 24 -29 2 -38 -77 -29 -89 10 -110 17 -104
35 4 9 -2 11 -19 8 -14 -3 -28 0 -31 6 -5 7 -1 8 11 4 10 -3 15 -3 11 2 -19
21 -116 7 -103 -16 4 -5 -2 -9 -12 -9 -17 -1 -17 -1 -1 -11 12 -7 24 -6 38 1
24 13 65 -4 54 -22 -4 -6 -3 -9 2 -6 5 3 18 2 29 -2 19 -7 19 -8 2 -15 -10 -4
-29 -2 -42 5 -27 15 -74 17 -84 3 -8 -12 -130 -103 -137 -103 -3 0 -23 -13
-44 -30 -21 -16 -48 -30 -60 -30 -13 0 -24 -8 -27 -18 -2 -10 -17 -23 -33 -31
-16 -7 -28 -18 -27 -24 1 -7 -4 -11 -11 -9 -8 1 -11 -2 -7 -8 4 -6 1 -17 -5
-25 -14 -17 -35 -21 -25 -5 3 5 -13 1 -36 -9 -48 -22 -69 -49 -48 -62 9 -5 5
-10 -14 -14 -30 -8 -34 -17 -14 -34 10 -8 17 -7 26 2 10 10 12 6 8 -20 -4 -22
-1 -33 9 -37 9 -3 13 -14 10 -28 -3 -13 -7 -34 -10 -48 -3 -14 -20 -40 -37
-58 -20 -20 -25 -30 -14 -26 13 5 16 4 11 -4 -4 -7 -14 -12 -22 -12 -8 0 -14
-5 -14 -11 0 -5 6 -7 13 -3 7 4 9 3 4 -2 -5 -5 -14 -9 -20 -9 -7 0 -13 -12
-15 -27 -3 -29 6 -36 24 -18 6 6 18 8 27 4 13 -5 14 -10 6 -26 -7 -12 -7 -29
-1 -46 5 -15 8 -40 7 -57 -1 -16 2 -64 7 -105 6 -41 12 -108 14 -147 4 -78 30
-145 63 -162 26 -14 38 -107 16 -130 -8 -10 -15 -22 -15 -28 0 -6 -14 -16 -30
-22 -28 -9 -30 -13 -30 -63 0 -75 18 -98 77 -98 39 0 44 2 38 17 -18 43 -24
90 -15 123 5 19 12 67 15 105 4 39 9 73 11 76 2 4 6 69 9 145 4 77 11 161 16
187 5 26 9 61 9 78 0 29 25 89 41 100 5 3 10 17 11 32 1 15 6 27 11 27 5 0 7
7 4 15 -4 8 -2 17 3 20 6 4 10 17 10 30 0 13 12 55 26 94 19 50 32 72 48 77
11 3 51 26 88 50 36 24 71 44 77 44 6 0 16 9 23 20 7 11 21 20 30 20 10 0 18
5 18 10 0 6 6 10 14 10 8 0 21 8 28 18 7 9 22 19 33 20 11 2 40 12 64 23 24
10 47 17 51 14 4 -3 13 2 20 10 7 8 19 15 28 15 8 0 23 7 33 16 16 14 20 13
47 -14 17 -17 28 -33 25 -36 -4 -3 -1 -6 5 -6 7 0 12 -6 12 -14 0 -8 13 -17
29 -21 16 -3 32 -12 34 -19 6 -15 147 -22 147 -7 0 5 8 7 18 5 9 -3 27 4 39
15 23 22 49 29 37 10 -5 -8 -1 -8 14 0 17 9 23 8 31 -6 6 -10 11 -12 11 -5 0
6 7 12 15 12 8 0 15 7 15 15 0 8 5 15 11 15 7 0 5 -9 -5 -24 l-15 -24 32 9
c39 11 40 11 32 -1 -3 -5 6 -12 20 -16 22 -6 29 -15 26 -36 0 -3 13 -9 29 -13
17 -4 30 -10 30 -15 0 -4 20 -13 45 -19 25 -6 45 -16 45 -21 0 -6 7 -10 15
-10 8 0 15 -7 15 -15 0 -8 4 -15 9 -15 5 0 13 -9 16 -20 5 -15 12 -19 25 -15
10 3 21 1 25 -5 4 -6 15 -8 25 -5 16 5 21 -2 29 -37 18 -71 33 -112 47 -128
36 -42 66 -157 79 -310 2 -31 11 -96 19 -145 25 -151 32 -225 23 -255 -2 -8
-7 -37 -12 -65 -4 -27 -14 -55 -21 -63 -12 -12 -19 -41 -15 -64 0 -5 -3 -8 -7
-8 -5 0 -9 -24 -11 -52 -1 -29 1 -49 6 -44 4 4 8 11 8 14 1 4 7 37 15 75 14
70 29 92 22 32 -3 -26 0 -35 10 -35 32 0 61 60 70 145 3 26 0 30 -20 27 -21
-3 -22 -1 -13 17 6 11 16 23 23 27 7 4 8 3 4 -4 -4 -7 -1 -12 7 -12 8 0 20 -7
27 -15 18 -22 37 -18 44 8 3 12 9 57 12 100 l7 78 -29 -3 c-23 -2 -30 2 -38
25 -9 25 -7 31 14 47 22 17 27 17 50 3 21 -12 26 -23 27 -57 0 -22 1 -52 2
-66 2 -24 2 -24 16 -6 12 16 15 17 15 4 0 -9 3 -24 6 -32 5 -13 2 -15 -12 -9
-16 6 -17 4 -7 -9 7 -8 10 -18 6 -21 -3 -4 4 -7 16 -7 18 0 22 4 18 20 -3 11
-1 20 4 20 5 0 9 -7 9 -15 0 -8 5 -15 11 -15 5 0 7 5 4 10 -3 6 -1 10 6 10 7
0 4 6 -7 14 -10 8 -16 18 -11 22 4 4 7 2 7 -4 0 -7 7 -12 16 -12 11 0 14 -6 9
-22 l-6 -23 19 22 20 22 0 -24 c0 -15 -6 -25 -14 -25 -9 0 -14 -11 -14 -27 0
-21 -3 -24 -9 -14 -6 10 -8 -1 -4 -30 6 -60 11 -71 24 -63 8 4 7 9 -2 15 -11
7 -10 9 4 9 14 0 16 -5 11 -27 -7 -25 -6 -27 9 -14 15 12 17 11 17 -7 0 -24
-16 -38 -23 -20 -2 7 -4 1 -3 -14 1 -21 5 -26 21 -24 11 2 15 1 8 -1 -28 -10
-24 -63 5 -63 8 0 24 -8 34 -17 17 -15 20 -15 28 -3 14 22 12 7 -5 -33 -15
-37 -11 -72 8 -60 6 4 8 0 4 -10 -8 -21 2 -49 14 -41 5 3 9 1 9 -4 0 -6 7 -13
16 -16 14 -5 15 -4 4 9 -11 13 -10 14 4 9 12 -5 16 0 16 21 0 15 4 24 10 20 6
-3 10 2 10 12 0 15 2 16 11 3 8 -12 10 -8 7 17 -3 18 -1 30 4 27 4 -3 8 -25 8
-49 0 -24 5 -47 10 -50 6 -3 10 -11 10 -16 0 -6 -4 -8 -9 -5 -5 3 -11 -3 -14
-14 -3 -11 -1 -23 5 -26 5 -3 7 -12 5 -19 -3 -6 3 -19 14 -28 10 -9 19 -23 19
-30 0 -7 10 -24 21 -36 14 -14 18 -26 11 -30 -5 -3 -8 -18 -5 -33 3 -15 9 -25
15 -22 5 3 6 14 3 25 -5 15 -1 19 19 19 l26 0 0 1185 0 1185 -742 -1 c-696 0
-741 -1 -704 -16 22 -9 48 -25 57 -34 17 -17 17 -19 1 -29 -13 -8 -5 -10 35
-8 32 2 49 -1 46 -7 -3 -5 0 -5 7 2 11 10 16 8 24 -10 8 -14 22 -23 42 -25 21
-2 36 -11 44 -28 7 -13 18 -24 24 -25 6 -1 27 -2 46 -2 22 -1 34 -7 33 -14 -2
-7 0 -12 5 -12 4 1 18 1 32 0 20 -1 22 -3 10 -11 -8 -5 -12 -12 -9 -15 9 -8
40 6 34 15 -3 4 7 10 22 13 20 4 31 0 41 -14 7 -10 21 -19 31 -19 11 0 21 -6
24 -14 3 -8 24 -17 46 -21 38 -6 68 -25 40 -25 -7 0 -5 -8 6 -20 15 -16 16
-23 6 -33 -10 -9 -11 -8 -6 6 4 9 3 17 -1 17 -5 0 -22 11 -38 25 -28 24 -46
32 -46 19 0 -9 23 -30 48 -43 16 -8 21 -18 17 -29 -3 -9 -3 -13 1 -10 15 15
43 -12 38 -37 -2 -14 0 -25 6 -25 6 0 9 -4 5 -9 -3 -5 3 -12 12 -15 20 -7 59
-76 43 -76 -6 0 -10 5 -10 10 0 6 -5 10 -12 10 -6 0 -22 9 -34 21 -12 11 -30
22 -40 24 -11 2 -19 4 -19 5 0 8 -36 6 -42 -2 -4 -7 -1 -8 7 -3 9 5 11 4 6 -3
-11 -18 -23 -14 -29 8 -3 13 -1 18 6 14 8 -5 9 -4 2 4 -10 10 -46 19 -120 28
-34 4 -37 3 -19 -7 15 -7 21 -20 20 -39 -1 -25 -3 -27 -31 -19 -45 13 -50 11
-29 -12 19 -22 19 -22 -1 -12 -54 28 -79 37 -98 38 -12 0 -28 4 -34 8 -7 5
-13 4 -13 -1 0 -6 16 -19 36 -31 32 -19 39 -41 13 -41 -6 0 -8 4 -4 9 9 15
-29 31 -72 31 l-38 -1 24 -19 c28 -24 15 -26 -19 -3 l-25 16 20 -24 c27 -33
47 -70 41 -76 -2 -3 -17 14 -32 36 -14 23 -30 41 -35 41 -5 0 -6 7 -3 15 4 8
-7 27 -25 46 -17 17 -31 35 -31 41 0 11 48 -16 65 -37 9 -10 65 -30 65 -22 0
1 -27 23 -60 47 -64 48 -72 65 -39 75 11 4 18 9 15 12 -3 4 -1 12 6 20 6 8 7
13 2 12 -23 -4 -26 3 -9 21 10 11 13 20 8 20 -15 0 -23 38 -9 44 6 2 3 5 -6 5
-10 1 -18 6 -18 11 0 17 27 22 49 10 17 -9 21 -8 21 6 0 13 3 14 13 5 33 -26
28 18 -5 54 -15 16 -21 17 -27 6 -5 -7 -14 -10 -20 -6 -7 4 -19 1 -27 -6 -12
-10 -13 -9 -8 4 3 9 13 18 22 21 10 3 6 4 -8 4 -49 -2 -80 13 -80 38 0 21 -2
22 -31 12 -28 -10 -29 -11 -13 -29 9 -10 28 -20 43 -22 14 -2 -2 -5 -37 -6
-57 -1 -62 1 -53 17 9 18 11 24 11 43 0 6 6 9 13 6 8 -3 19 -2 26 3 10 5 9 9
-3 13 -8 3 -26 -3 -40 -14 -17 -13 -33 -18 -46 -14 -11 3 -20 2 -20 -3 0 -11
-48 -3 -55 8 -3 5 2 16 11 25 13 13 19 13 32 3 13 -11 14 -11 7 1 -6 11 -3 13
17 8 18 -5 25 -2 25 8 0 13 -68 15 -501 13 -276 0 -491 -3 -478 -5z m480 -18
c-2 -1 -21 -6 -43 -9 -41 -8 -41 8 0 16 18 4 50 -1 43 -7z m-418 1 c0 -3 -4
-8 -10 -11 -5 -3 -10 -1 -10 4 0 6 5 11 10 11 6 0 10 -2 10 -4z m510 -6 c11
-8 2 -9 -30 -4 -25 3 -47 8 -49 10 -9 9 65 3 79 -6z m-585 -10 c3 -5 1 -10 -4
-10 -6 0 -11 5 -11 10 0 6 2 10 4 10 3 0 8 -4 11 -10z m207 -48 c-7 -2 -10 -8
-6 -13 3 -5 -5 -9 -17 -9 -22 0 -22 0 -3 19 10 10 23 16 29 13 5 -3 4 -7 -3
-10z m97 -37 c0 -5 -4 -3 -9 5 -5 8 -9 22 -9 30 0 16 17 -16 18 -35z m566 15
c3 -5 1 -10 -4 -10 -6 0 -11 5 -11 10 0 6 2 10 4 10 3 0 8 -4 11 -10z m685
-20 c0 -5 -7 -10 -15 -10 -8 0 -15 5 -15 10 0 6 7 10 15 10 8 0 15 -4 15 -10z
m-614 -13 c3 -3 -6 -9 -20 -13 -15 -3 -30 -4 -33 0 -4 3 1 6 11 6 9 0 15 4 12
9 -7 10 20 9 30 -2z m-566 -1 c0 -3 -4 -8 -10 -11 -5 -3 -10 -1 -10 4 0 6 5
11 10 11 6 0 10 -2 10 -4z m815 -16 c-3 -5 -1 -10 6 -10 13 0 -20 -29 -33 -30
-12 0 -2 31 13 41 18 11 22 11 14 -1z m-320 -17 c-16 -38 -18 -56 -7 -49 7 4
14 -5 20 -25 5 -22 15 -33 30 -36 12 -1 22 3 23 10 0 13 17 -22 18 -39 1 -7
-27 -17 -61 -23 -49 -8 -65 -8 -75 2 -11 11 -7 12 21 9 l34 -4 -9 39 c-5 21
-9 42 -9 48 0 5 -7 -1 -16 -14 -14 -19 -14 -25 -3 -32 10 -6 8 -9 -9 -9 -19 0
-22 4 -17 21 5 15 2 22 -15 26 -13 3 -19 11 -16 19 3 8 1 14 -5 14 -20 0 3 20
44 40 52 24 61 25 52 3z m211 -33 c13 0 24 -4 24 -10 0 -5 -7 -6 -17 -3 -11 4
-14 3 -9 -5 4 -7 1 -12 -8 -12 -9 0 -16 4 -16 9 0 5 -2 15 -3 23 -2 7 -2 10 0
6 3 -5 16 -8 29 -8z m-66 -64 c0 -3 -4 -8 -10 -11 -5 -3 -10 -1 -10 4 0 6 5
11 10 11 6 0 10 -2 10 -4z m24 -25 c3 -5 -8 -11 -24 -13 -32 -5 -42 7 -12 15
28 8 31 7 36 -2z m-237 -67 c-3 -3 -12 -4 -19 -1 -8 3 -5 6 6 6 11 1 17 -2 13
-5z m-82 -14 c3 -5 2 -10 -4 -10 -5 0 -13 5 -16 10 -3 6 -2 10 4 10 5 0 13 -4
16 -10z m145 -10 c0 -5 -4 -10 -10 -10 -5 0 -10 5 -10 10 0 6 5 10 10 10 6 0
10 -4 10 -10z m-346 -98 c2 -4 -5 -9 -17 -9 -17 -2 -19 0 -7 7 18 12 18 12 24
2z m1010 -24 c-3 -4 -12 -8 -20 -8 -8 0 -14 4 -14 8 0 4 9 8 19 8 11 0 17 -4
15 -8z m-1221 -65 c-7 -2 -19 -2 -25 0 -7 3 -2 5 12 5 14 0 19 -2 13 -5z
m1047 -37 c0 -2 -7 -7 -16 -10 -8 -3 -12 -2 -9 4 6 10 25 14 25 6z m548 -68
c6 -13 13 -36 15 -52 2 -17 13 -33 28 -42 23 -13 24 -13 2 -14 -20 0 -21 -3
-11 -30 5 -17 23 -38 38 -47 16 -9 26 -21 23 -25 -2 -5 -10 -2 -17 7 -6 9 -18
15 -26 13 -8 -2 -14 2 -15 7 -1 24 -17 36 -31 24 -11 -9 -14 -7 -13 12 1 22
-20 109 -36 152 -11 26 29 22 43 -5z m75 -239 c3 -11 9 -19 14 -16 4 3 17 -1
28 -9 17 -13 17 -14 1 -14 -12 0 -16 -5 -11 -19 5 -15 1 -18 -20 -14 -13 3
-23 9 -20 13 3 4 -5 10 -18 14 -17 5 -19 8 -8 15 10 6 10 10 1 16 -8 5 -6 11
7 22 10 8 12 11 5 8 -7 -4 -24 -4 -38 -1 -20 5 -22 9 -12 20 11 12 17 12 39 0
15 -7 29 -23 32 -35z m62 13 c-3 -3 -11 0 -18 7 -9 10 -8 11 6 5 10 -3 15 -9
12 -12z m-121 -24 c-3 -4 -9 -8 -15 -8 -5 0 -9 4 -9 8 0 5 7 9 15 9 8 0 12 -4
9 -9z m142 -9 c6 -5 14 -6 17 -2 4 3 7 1 7 -5 0 -7 -2 -12 -5 -12 -9 0 -65 30
-65 35 0 6 32 -6 46 -16z m-53 -154 c13 -27 13 -33 3 -29 -20 8 -30 -14 -15
-32 10 -12 9 -13 -5 -8 -9 3 -16 9 -17 13 -13 96 3 122 34 56z m-2 -139 c5 3
9 -2 9 -11 0 -23 -24 -13 -27 11 -2 10 0 13 3 6 3 -6 10 -10 15 -6z m22 -199
c9 -3 17 -12 16 -19 0 -10 -2 -10 -6 0 -2 6 -13 12 -24 12 -11 0 -19 7 -19 18
0 10 3 13 8 6 4 -6 15 -13 25 -17z m-38 -17 c3 -5 1 -10 -4 -10 -6 0 -11 5
-11 10 0 6 2 10 4 10 3 0 8 -4 11 -10z m28 -20 c3 -11 1 -20 -4 -20 -5 0 -9 9
-9 20 0 11 2 20 4 20 2 0 6 -9 9 -20z m112 -60 c3 -5 1 -10 -4 -10 -6 0 -11 5
-11 10 0 6 2 10 4 10 3 0 8 -4 11 -10z m-68 -52 c-3 -7 -5 -2 -5 12 0 14 2 19
5 13 2 -7 2 -19 0 -25z m43 16 c0 -8 -4 -12 -10 -9 -5 3 -10 10 -10 16 0 5 5
9 10 9 6 0 10 -7 10 -16z m10 -60 c0 -2 -9 0 -20 6 -11 6 -20 13 -20 16 0 2 9
0 20 -6 11 -6 20 -13 20 -16z m79 -92 c-5 -2 -9 -10 -9 -18 0 -9 4 -13 9 -10
5 3 8 -12 7 -33 0 -28 -4 -37 -14 -34 -7 3 -11 12 -8 19 3 8 -1 14 -9 14 -9 0
-12 -6 -9 -17 5 -14 4 -15 -4 -4 -7 10 -6 21 5 38 10 14 11 23 4 23 -6 0 -11
5 -11 10 0 6 7 10 15 10 9 0 15 9 16 23 0 21 1 21 8 2 5 -11 4 -21 0 -23z m47
-40 c-1 -14 -7 -27 -14 -28 -7 -1 -8 0 -2 3 13 6 13 33 0 33 -5 0 -10 4 -10 8
0 5 6 9 13 9 8 0 14 -11 13 -25z m9 -61 c-3 -12 -14 -21 -23 -21 -16 1 -15 2
1 11 9 5 17 17 17 26 0 9 3 14 6 10 3 -3 3 -15 -1 -26z m-25 -136 c-14 -17
-30 -20 -30 -6 0 5 8 12 18 14 9 3 19 5 21 6 2 0 -2 -6 -9 -14z m215 -125 c3
-5 1 -10 -4 -10 -6 0 -11 5 -11 10 0 6 2 10 4 10 3 0 8 -4 11 -10z m-25 -19
c0 -6 -4 -13 -10 -16 -5 -3 -10 1 -10 9 0 9 5 16 10 16 6 0 10 -4 10 -9z m-95
-21 c-3 -5 -11 -10 -16 -10 -6 0 -7 5 -4 10 3 6 11 10 16 10 6 0 7 -4 4 -10z
m98 -24 c4 -10 1 -13 -9 -9 -15 6 -19 23 -5 23 5 0 11 -7 14 -14z"/>
<path d="M424 2960 c0 -11 4 -20 8 -20 4 0 8 9 8 20 0 11 -4 20 -8 20 -4 0 -8
-9 -8 -20z"/>
<path d="M605 2890 c-3 -5 -1 -10 4 -10 6 0 11 5 11 10 0 6 -2 10 -4 10 -3 0
-8 -4 -11 -10z"/>
<path d="M637 2859 c7 -7 15 -10 18 -7 3 3 -2 9 -12 12 -14 6 -15 5 -6 -5z"/>
<path d="M688 2853 c6 -2 18 -2 25 0 6 3 1 5 -13 5 -14 0 -19 -2 -12 -5z"/>
<path d="M1203 2854 c-24 -10 -2 -34 26 -28 40 10 47 17 25 25 -22 9 -34 9
-51 3z"/>
<path d="M698 2833 c7 -3 16 -2 19 1 4 3 -2 6 -13 5 -11 0 -14 -3 -6 -6z"/>
<path d="M744 2815 c11 -8 25 -15 30 -15 6 0 2 7 -8 15 -11 8 -25 15 -30 15
-6 0 -2 -7 8 -15z"/>
<path d="M1780 2801 c0 -9 33 -21 60 -21 22 0 -1 16 -32 24 -16 3 -28 2 -28
-3z"/>
<path d="M760 2780 c20 -13 33 -13 25 0 -3 6 -14 10 -23 10 -15 0 -15 -2 -2
-10z"/>
<path d="M745 2760 c3 -5 8 -10 11 -10 2 0 4 5 4 10 0 6 -5 10 -11 10 -5 0 -7
-4 -4 -10z"/>
<path d="M1917 2763 c-10 -9 -9 -23 1 -23 5 0 9 7 9 15 0 17 -1 18 -10 8z"/>
<path d="M775 2749 c-4 -6 -5 -12 -2 -15 2 -3 7 2 10 11 7 17 1 20 -8 4z"/>
<path d="M1966 2742 c-3 -5 1 -9 9 -9 8 0 12 4 9 9 -3 4 -7 8 -9 8 -2 0 -6 -4
-9 -8z"/>
<path d="M2000 2716 c0 -2 7 -9 15 -16 9 -7 15 -8 15 -2 0 5 -7 12 -15 16 -8
3 -15 4 -15 2z"/>
<path d="M1700 2660 c0 -13 18 -22 24 -11 3 5 -1 11 -9 15 -8 3 -15 1 -15 -4z"/>
<path d="M895 2639 c-4 -6 -5 -12 -2 -15 2 -3 7 2 10 11 7 17 1 20 -8 4z"/>
<path d="M1895 2530 c-3 -5 -1 -10 4 -10 6 0 11 5 11 10 0 6 -2 10 -4 10 -3 0
-8 -4 -11 -10z"/>
<path d="M730 2509 c0 -5 5 -7 10 -4 6 3 10 8 10 11 0 2 -4 4 -10 4 -5 0 -10
-5 -10 -11z"/>
<path d="M1105 1831 c-27 -4 -89 -7 -137 -5 -80 2 -90 0 -131 -26 -41 -26 -77
-79 -77 -114 0 -9 -4 -16 -8 -16 -5 0 -9 -7 -9 -15 0 -9 10 -15 24 -15 14 0
21 4 18 10 -3 6 1 13 10 16 12 5 13 9 4 20 -9 11 -6 14 15 14 14 0 26 5 26 11
0 7 12 9 30 7 17 -3 33 -1 36 4 3 4 10 8 15 8 6 0 8 -4 5 -9 -4 -6 27 -8 74
-7 71 2 80 1 80 -15 0 -24 -27 -49 -45 -43 -8 4 -15 2 -15 -2 0 -5 -15 -15
-32 -23 -105 -45 -119 -53 -148 -95 -34 -50 -29 -60 21 -45 45 14 109 19 109
8 0 -4 9 -6 20 -4 11 2 20 0 20 -5 0 -5 10 -10 22 -12 13 -2 22 -12 25 -26 1
-13 -1 -21 -6 -17 -5 3 -12 1 -16 -5 -3 -6 4 -10 17 -10 19 0 20 -2 8 -11 -12
-9 -12 -10 4 -5 10 4 25 1 32 -5 10 -8 14 -8 14 0 0 6 12 11 28 11 36 0 108
39 123 67 25 47 15 120 -23 154 -10 9 -15 19 -11 22 3 4 -8 10 -25 13 -32 7
-42 27 -20 40 6 4 55 8 107 8 71 1 96 4 96 14 0 7 7 17 15 22 12 8 12 10 -3
16 -9 3 -15 9 -13 13 9 14 -10 28 -46 35 -26 5 -38 3 -38 -4 0 -7 -7 -5 -16 4
-8 9 -28 16 -43 16 -16 0 -41 2 -57 4 -16 2 -51 1 -79 -3z m-102 -287 c3 -19
1 -24 -10 -20 -8 3 -19 6 -24 6 -6 0 -5 8 1 20 15 27 27 25 33 -6z m162 17 c3
-5 1 -12 -5 -16 -5 -3 -10 1 -10 9 0 18 6 21 15 7z"/>
<path d="M1607 1790 c-41 -32 -46 -49 -32 -103 10 -40 10 -51 -1 -62 -10 -10
-11 -16 -3 -21 8 -4 7 -9 -2 -15 -9 -6 -10 -9 -2 -9 6 0 10 -11 8 -25 -1 -14
1 -25 4 -25 3 0 16 -22 28 -48 13 -29 33 -54 50 -63 15 -8 31 -18 35 -24 7 -9
12 7 9 27 0 4 16 -3 36 -15 21 -12 44 -23 53 -25 33 -6 173 -2 184 6 6 5 28 8
49 6 31 -2 38 0 33 12 -4 12 -1 14 15 9 14 -5 27 1 44 19 13 14 29 26 36 26 8
0 9 3 0 13 -6 8 -8 17 -4 21 4 4 1 11 -7 16 -8 5 -11 12 -7 16 4 4 17 -1 28
-12 l22 -19 -18 28 c-10 16 -13 27 -6 27 6 0 11 7 11 15 0 8 -8 15 -17 15 -11
0 -14 3 -8 8 19 13 2 98 -17 86 -7 -5 -8 -2 -4 5 5 7 0 21 -10 32 -11 13 -20
16 -24 8 -5 -7 -12 -5 -23 5 -8 9 -20 16 -25 16 -6 0 -12 7 -15 14 -4 10 -19
14 -46 13 -23 -2 -41 1 -41 5 0 4 -9 8 -21 8 -13 0 -18 -4 -13 -12 6 -10 4
-10 -7 -2 -8 6 -21 11 -29 11 -9 0 -28 3 -44 7 -19 5 -26 3 -21 -5 6 -8 2 -8
-12 0 -11 6 -23 8 -26 5 -3 -3 -14 -1 -24 4 -10 5 -39 12 -64 16 -37 6 -50 3
-72 -14z m413 -46 c0 -8 -4 -12 -10 -9 -5 3 -10 10 -10 16 0 5 5 9 10 9 6 0
10 -7 10 -16z m-30 -74 c-13 -8 -13 -10 2 -10 11 0 15 -5 12 -14 -6 -17 -36
-14 -42 4 -3 9 -6 9 -11 1 -5 -8 -15 -9 -32 -2 -17 7 -19 10 -6 10 9 1 17 6
17 11 0 6 17 10 38 10 27 0 33 -3 22 -10z m-183 -6 c-3 -3 -12 -4 -19 -1 -8 3
-5 6 6 6 11 1 17 -2 13 -5z m-40 -106 c-3 -8 -6 -5 -6 6 -1 11 2 17 5 13 3 -3
4 -12 1 -19z"/>
<path d="M948 1403 c7 -3 16 -2 19 1 4 3 -2 6 -13 5 -11 0 -14 -3 -6 -6z"/>
<path d="M387 1326 c-26 -66 20 -296 67 -335 30 -25 28 -4 -6 50 -31 51 -33
60 -35 154 -1 104 -13 164 -26 131z"/>
<path d="M2555 1221 c-3 -5 -1 -12 5 -16 5 -3 10 1 10 9 0 18 -6 21 -15 7z"/>
<path d="M2580 1206 c0 -2 7 -9 15 -16 9 -7 15 -8 15 -2 0 5 -7 12 -15 16 -8
3 -15 4 -15 2z"/>
<path d="M2535 1190 c3 -5 8 -10 11 -10 2 0 4 5 4 10 0 6 -5 10 -11 10 -5 0
-7 -4 -4 -10z"/>
<path d="M1145 1180 c3 -6 1 -10 -5 -10 -13 0 -45 -30 -33 -31 4 0 -2 -4 -15
-9 -12 -5 -25 -18 -29 -27 -16 -45 -55 -94 -69 -89 -8 3 -17 -1 -21 -11 -4 -9
-1 -19 5 -21 9 -3 8 -11 -3 -32 -15 -28 -17 -112 -2 -103 4 2 7 -3 7 -12 0 -9
9 -25 20 -37 11 -12 21 -31 21 -42 1 -17 2 -18 6 -3 2 9 9 17 15 17 5 0 7 7 4
16 -3 9 0 24 8 35 13 19 15 19 62 -17 27 -21 51 -40 54 -44 5 -8 95 -50 106
-50 4 0 13 -8 21 -17 8 -10 11 -12 8 -4 -5 9 1 7 20 -5 17 -11 25 -24 22 -35
-4 -14 4 -19 42 -25 25 -4 53 -6 63 -5 9 1 19 -3 23 -9 5 -8 11 -8 21 1 8 6
14 9 14 6 0 -3 26 1 57 8 32 7 61 11 65 9 5 -3 8 2 8 11 0 10 -5 13 -11 9 -21
-13 -107 -13 -104 -1 12 59 92 98 208 102 86 3 121 11 111 26 -7 12 3 11 26
-1 11 -6 16 -17 13 -28 -3 -13 1 -19 12 -19 10 0 18 11 22 29 3 15 9 25 14 22
5 -3 9 6 9 20 0 14 4 26 9 26 16 0 22 50 11 90 -11 41 -37 76 -112 151 -27 26
-48 50 -48 53 0 7 -38 46 -45 46 -3 0 -5 -6 -5 -14 0 -13 -57 -66 -72 -66 -7
0 -12 15 -9 32 4 26 -84 47 -100 25 -3 -5 -14 -10 -24 -11 -10 -1 -19 -10 -21
-19 -3 -21 -24 -41 -48 -45 -55 -10 -66 -20 -61 -58 5 -38 15 -59 15 -32 0 20
26 42 39 33 7 -4 1 -17 -14 -33 -13 -14 -23 -28 -21 -29 8 -8 76 -9 76 -1 0
12 28 10 35 -3 10 -15 2 -20 -42 -25 -21 -3 -51 -7 -68 -9 -27 -5 -279 -31
-345 -37 -14 -1 -31 1 -37 5 -6 4 -14 3 -18 -3 -11 -18 -25 -10 -25 15 0 25
14 33 25 15 8 -13 25 -13 25 1 0 5 -6 7 -12 4 -7 -3 -3 2 10 11 12 9 22 22 22
29 0 8 8 16 18 18 16 4 16 5 0 6 -10 0 -18 6 -18 11 0 10 28 59 40 70 11 10
50 92 50 105 0 7 -7 16 -16 19 -8 3 -12 2 -9 -4z m616 -123 c30 -82 42 -148
31 -159 -15 -15 -128 0 -151 20 -11 10 -22 28 -25 42 -3 14 -3 19 0 13 14 -32
61 7 70 57 8 43 31 83 47 77 6 -2 19 -24 28 -50z m-697 -93 c3 -8 2 -12 -4 -9
-6 3 -10 10 -10 16 0 14 7 11 14 -7z m544 -29 c-3 -3 -9 2 -12 12 -6 14 -5 15
5 6 7 -7 10 -15 7 -18z m-287 -74 c6 10 13 10 34 1 20 -9 31 -10 40 -2 14 11
61 4 82 -12 7 -5 14 -5 18 2 8 13 82 13 90 0 4 -6 13 -5 26 3 17 10 22 9 32
-4 9 -12 16 -14 29 -5 27 16 41 -4 28 -38 -8 -23 -13 -26 -24 -17 -11 9 -16 9
-21 1 -4 -7 -20 -10 -36 -8 -16 3 -30 0 -32 -5 -1 -5 -42 -14 -91 -20 -74 -9
-89 -9 -96 3 -7 12 -12 12 -22 2 -16 -16 -45 -16 -51 1 -3 9 -7 9 -20 -1 -13
-11 -21 -10 -49 10 -18 12 -35 24 -37 25 -2 2 -1 6 3 10 4 4 12 1 17 -7 7 -10
8 -3 3 24 -8 47 9 63 45 40 19 -13 25 -14 32 -3z"/>
<path d="M1291 1148 c-30 -16 -49 -70 -23 -67 45 4 62 -2 62 -21 0 -23 10 -26
29 -7 11 10 12 8 3 -8 -9 -18 -7 -21 12 -23 31 -2 32 32 1 46 -18 8 -25 8 -29
-1 -2 -7 -5 -5 -5 4 -1 18 18 29 50 29 26 0 24 16 -3 34 -35 23 -71 27 -97 14z"/>
<path d="M2675 960 c-3 -5 -1 -10 4 -10 6 0 11 5 11 10 0 6 -2 10 -4 10 -3 0
-8 -4 -11 -10z"/>
<path d="M2706 963 c5 -5 12 -12 16 -18 4 -6 8 -2 8 8 0 9 -7 17 -17 17 -9 0
-12 -3 -7 -7z"/>
<path d="M2251 903 c-8 -27 -16 -56 -18 -66 -5 -28 -23 -57 -34 -57 -6 0 -8
-9 -4 -19 6 -20 -13 -40 -24 -24 -3 5 -19 6 -36 2 -25 -5 -18 -14 8 -10 4 0 7
-7 7 -17 0 -14 2 -15 10 -2 5 8 10 10 10 5 0 -6 -5 -16 -12 -23 -6 -6 -8 -15
-4 -19 4 -4 12 -1 17 7 8 11 9 10 4 -7 -4 -14 -2 -23 4 -23 13 0 15 -27 2 -32
-5 -1 -12 -19 -15 -38 l-7 -35 21 40 c12 22 23 47 25 55 4 15 30 125 40 168 4
18 12 22 42 22 l36 0 -21 23 c-14 15 -22 36 -22 60 0 51 -13 46 -29 -10z"/>
<path d="M2137 920 c-3 -11 -1 -20 4 -20 5 0 9 9 9 20 0 11 -2 20 -4 20 -2 0
-6 -9 -9 -20z"/>
<path d="M2701 924 c0 -11 3 -14 6 -6 3 7 2 16 -1 19 -3 4 -6 -2 -5 -13z"/>
<path d="M2160 900 c-9 -16 -8 -20 5 -20 9 0 14 4 10 9 -3 5 3 11 12 13 17 3
17 4 1 10 -12 5 -21 1 -28 -12z"/>
<path d="M2717 894 c-4 -4 -7 -14 -7 -23 0 -14 2 -14 10 -1 8 12 10 12 10 1 0
-8 3 -12 6 -8 3 3 2 13 -3 22 -5 8 -12 12 -16 9z"/>
<path d="M2093 884 c-7 -3 -9 -12 -6 -20 8 -21 22 -17 20 6 -1 11 -1 20 -2 19
0 0 -5 -3 -12 -5z"/>
<path d="M2851 868 c0 -10 -6 -18 -12 -18 -5 0 -7 -5 -3 -11 10 -16 27 5 21
27 -4 17 -5 17 -6 2z"/>
<path d="M2150 863 c0 -6 5 -15 10 -18 6 -3 10 -11 10 -16 0 -6 -4 -8 -9 -4
-6 3 -9 -4 -8 -15 1 -11 5 -20 9 -20 4 0 8 -5 8 -11 0 -6 -9 -8 -22 -4 -21 5
-21 5 2 -9 35 -21 37 -20 32 14 -2 17 0 30 6 30 5 0 12 9 15 19 3 14 1 18 -10
14 -8 -3 -20 3 -28 13 -8 11 -15 14 -15 7z"/>
<path d="M2677 838 c6 -7 13 -20 16 -28 4 -10 6 -8 6 6 1 12 -6 25 -15 28 -13
5 -14 3 -7 -6z"/>
<path d="M2090 822 c0 -11 -6 -23 -12 -25 -10 -4 -10 -6 0 -6 7 -1 11 -5 7
-11 -3 -5 -13 -6 -23 -3 -16 5 -16 5 0 -12 17 -19 38 -13 38 11 0 8 5 12 11 9
7 -5 9 3 7 21 -4 32 -28 46 -28 16z"/>
<path d="M2760 810 c0 -5 5 -10 10 -10 6 0 10 5 10 10 0 6 -4 10 -10 10 -5 0
-10 -4 -10 -10z"/>
<path d="M2036 664 c-18 -25 -18 -25 3 -12 12 7 21 18 21 25 0 18 -2 16 -24
-13z"/>
<path d="M2086 678 c3 -4 9 -8 15 -8 5 0 9 4 9 8 0 5 -7 9 -15 9 -8 0 -12 -4
-9 -9z"/>
<path d="M2896 673 c5 -5 12 -12 16 -18 4 -6 8 -2 8 8 0 9 -7 17 -17 17 -9 0
-12 -3 -7 -7z"/>
<path d="M2121 663 c0 -5 4 -17 9 -28 8 -18 9 -17 9 8 1 15 -3 27 -9 27 -5 0
-10 -3 -9 -7z"/>
<path d="M2101 644 c0 -11 3 -14 6 -6 3 7 2 16 -1 19 -3 4 -6 -2 -5 -13z"/>
<path d="M2063 614 c-21 -21 -21 -23 -3 -21 10 1 16 5 13 11 -4 5 1 7 10 3 18
-7 22 1 9 19 -5 7 -15 3 -29 -12z"/>
<path d="M2972 613 c16 -4 16 -6 2 -20 -8 -9 -13 -22 -10 -30 3 -8 1 -11 -4
-8 -6 3 -10 -4 -10 -17 0 -18 6 -24 25 -26 24 -2 25 1 25 53 0 51 -2 55 -22
54 -17 -1 -19 -2 -6 -6z"/>
<path d="M1530 603 c0 -5 -11 -10 -25 -11 -14 -1 -36 -2 -50 -3 -13 -1 -22 -5
-19 -10 3 -5 -2 -6 -10 -3 -10 4 -16 1 -16 -7 0 -11 -3 -11 -10 1 -5 8 -10 10
-10 4 0 -6 9 -21 20 -34 11 -13 20 -30 20 -38 0 -10 4 -12 13 -5 6 5 23 8 37
6 14 -1 47 0 73 3 45 6 47 7 33 23 -17 19 -22 46 -7 37 5 -3 11 3 14 13 3 14
0 17 -14 14 -11 -3 -26 0 -34 7 -8 7 -15 8 -15 3z"/>
<path d="M2125 583 c8 -8 19 -11 25 -8 17 11 11 20 -15 21 -21 2 -22 0 -10
-13z"/>
<path d="M1855 580 c3 -5 11 -10 16 -10 6 0 7 5 4 10 -3 6 -11 10 -16 10 -6 0
-7 -4 -4 -10z"/>
<path d="M2056 570 c-11 -3 -15 -9 -10 -13 10 -6 42 9 34 16 -3 3 -14 1 -24
-3z"/>
<path d="M2005 546 c-23 -25 -26 -40 -4 -19 12 12 21 24 18 27 -2 2 -9 -1 -14
-8z"/>
<path d="M1887 539 c7 -7 15 -10 18 -7 3 3 -2 9 -12 12 -14 6 -15 5 -6 -5z"/>
<path d="M2095 541 c-3 -6 -11 -8 -17 -5 -7 4 -8 2 -4 -4 4 -7 3 -12 -3 -12
-5 0 -11 5 -13 12 -3 7 -12 6 -30 -6 -29 -19 -46 -48 -23 -40 7 3 16 12 19 21
4 10 14 13 29 10 22 -6 66 17 55 29 -3 3 -9 0 -13 -5z"/>
<path d="M2932 525 c0 -16 2 -22 5 -12 2 9 2 23 0 30 -3 6 -5 -1 -5 -18z"/>
<path d="M1956 523 c-6 -14 -5 -15 5 -6 7 7 10 15 7 18 -3 3 -9 -2 -12 -12z"/>
<path d="M1930 496 c0 -2 9 -6 20 -9 11 -3 20 -1 20 4 0 5 -9 9 -20 9 -11 0
-20 -2 -20 -4z"/>
<path d="M2067 489 c7 -7 15 -10 18 -7 3 3 -2 9 -12 12 -14 6 -15 5 -6 -5z"/>
<path d="M2950 490 c-8 -5 -11 -12 -7 -17 5 -4 11 -2 15 4 4 6 16 13 27 16
l20 5 -20 1 c-11 0 -27 -3 -35 -9z"/>
<path d="M2100 420 c-6 -11 -8 -25 -4 -31 8 -14 -16 -60 -28 -53 -4 3 -8 10
-8 15 0 6 4 8 9 4 5 -3 12 -1 15 4 4 5 -2 8 -11 7 -23 -4 -29 -27 -10 -41 11
-7 13 -16 6 -26 -5 -8 -9 -9 -9 -4 0 6 -4 3 -10 -5 -5 -8 -12 -11 -16 -7 -4 3
-1 13 6 22 7 8 8 15 2 15 -15 0 -24 -32 -12 -44 19 -19 10 -29 -10 -11 -20 18
-21 18 -14 -1 4 -10 15 -24 23 -31 13 -10 14 -14 3 -25 -11 -11 -12 -10 -7 5
5 12 2 17 -9 17 -9 0 -16 7 -16 15 0 8 -4 15 -10 15 -5 0 -10 -4 -10 -9 0 -6
-14 -18 -30 -28 -17 -9 -33 -25 -36 -35 -3 -10 -11 -15 -21 -11 -12 5 -14 1
-8 -15 8 -28 -1 -28 -16 -1 -9 17 -8 24 2 31 10 7 8 8 -6 3 -11 -4 -29 -10
-39 -13 -18 -5 -18 -4 -5 10 7 9 16 14 19 13 3 -2 12 0 20 6 12 7 9 9 -10 10
-15 0 -19 3 -10 6 25 10 37 27 32 45 -3 13 4 21 27 29 36 13 35 10 19 44 -10
22 -8 28 11 46 12 12 20 24 17 27 -4 3 -13 -3 -21 -14 -11 -14 -14 -15 -9 -3
4 13 0 17 -19 15 -16 0 -24 -6 -22 -16 1 -8 11 -14 21 -13 11 1 13 0 6 -3 -6
-3 -9 -11 -6 -17 5 -8 2 -8 -7 1 -14 13 -30 16 -28 5 4 -23 -2 -43 -11 -38 -5
3 -10 1 -10 -6 0 -7 -3 -9 -7 -6 -3 4 -11 0 -17 -9 -17 -22 -86 -36 -93 -18
-3 8 -9 11 -14 8 -5 -3 -6 -11 -2 -17 4 -7 0 -6 -10 2 -18 14 -52 7 -42 -9 3
-5 2 -10 -3 -10 -6 0 -12 7 -16 15 -3 8 -11 15 -17 15 -8 0 -8 -4 1 -15 11
-14 8 -15 -24 -11 -34 4 -48 -6 -26 -19 6 -3 10 -1 10 4 0 6 5 11 10 11 6 0
10 -7 10 -15 0 -8 -7 -15 -15 -15 -8 0 -15 -4 -15 -10 0 -5 10 -9 21 -7 16 1
22 -4 24 -20 1 -12 -2 -20 -7 -17 -14 9 -9 -8 6 -20 16 -12 25 -45 13 -45 -5
0 -17 -10 -28 -22 -10 -12 -19 -18 -19 -13 0 5 -5 2 -10 -6 -9 -13 -10 -13
-10 0 0 13 -2 13 -9 1 -11 -17 -25 -20 -99 -23 -34 -2 -51 -7 -48 -14 2 -6 -1
-17 -7 -23 -6 -6 -8 -13 -5 -16 3 -3 205 -4 449 -3 l444 3 -98 49 -99 48 6 57
c3 31 8 94 12 141 3 47 7 97 9 113 4 32 0 34 -15 7z m-190 -90 c0 -11 -7 -20
-15 -20 -8 0 -15 5 -15 10 0 6 6 10 13 10 8 0 7 4 -3 10 -13 8 -12 10 3 10 10
0 17 -8 17 -20z m-246 -175 c-4 -8 -10 -15 -15 -15 -4 0 -6 7 -3 15 4 8 10 15
15 15 4 0 6 -7 3 -15z m346 -9 c0 -3 -4 -8 -10 -11 -5 -3 -10 -1 -10 4 0 6 5
11 10 11 6 0 10 -2 10 -4z m-39 -29 c-10 -9 -11 -8 -5 6 3 10 9 15 12 12 3 -3
0 -11 -7 -18z m-10 -27 c9 13 10 13 6 0 -2 -8 -11 -16 -20 -18 -13 -3 -17 4
-16 25 l0 28 10 -25 c8 -20 12 -22 20 -10z m-54 -32 c-3 -8 -6 -5 -6 6 -1 11
2 17 5 13 3 -3 4 -12 1 -19z"/>
<path d="M1446 278 c3 -4 9 -8 15 -8 5 0 9 4 9 8 0 5 -7 9 -15 9 -8 0 -12 -4
-9 -9z"/>
<path d="M1880 279 c0 -5 5 -7 10 -4 6 3 10 8 10 11 0 2 -4 4 -10 4 -5 0 -10
-5 -10 -11z"/>
<path d="M1420 251 c0 -6 4 -13 10 -16 6 -3 7 1 4 9 -7 18 -14 21 -14 7z"/>
<path d="M1479 241 c7 -5 10 -14 7 -20 -4 -6 0 -11 9 -11 12 0 15 5 11 16 -3
9 -6 18 -6 20 0 2 -8 4 -17 4 -14 0 -15 -2 -4 -9z"/>
<path d="M685 117 c-6 -7 -21 -26 -35 -43 -14 -17 -30 -29 -35 -28 -6 2 -23
-8 -40 -21 l-30 -25 68 0 c75 0 77 2 91 88 6 42 0 52 -19 29z"/>
<path d="M1324 56 c-4 -9 -4 -20 0 -23 3 -4 6 -1 6 5 0 7 4 12 10 12 5 0 7 -7
4 -15 -4 -8 -1 -15 6 -15 6 0 8 5 4 13 -5 8 -2 8 9 -2 12 -9 17 -10 17 -2 0 7
4 9 10 6 6 -3 7 1 4 10 -4 9 -13 14 -22 10 -8 -3 -21 0 -28 6 -11 9 -15 7 -20
-5z"/>
</g>
</svg>
